<svg width="400" height="400" viewBox="0 0 400 400" fill="none" xmlns="http://www.w3.org/2000/svg">
<rect width="400" height="400" fill="white"/>
<path d="M394.971 214.849C395.136 221.13 394.593 226.901 393.433 233.069C393.182 234.417 393.182 234.417 392.926 235.793C385.162 275.78 385.162 275.78 375.079 282.873C374.459 283.227 373.84 283.581 373.201 283.945C372.444 284.377 371.688 284.809 370.909 285.254C353.003 294.749 333.218 290.918 314.516 285.838C310.711 284.828 306.905 283.825 303.098 282.821C302.182 282.578 301.266 282.335 300.321 282.085C293.726 280.356 287.245 278.903 280.441 278.266C279.727 278.199 279.013 278.132 278.278 278.063C262.059 277.327 248.755 284.72 237.145 295.226C230.56 301.364 224.933 308.275 219.279 315.259C216.39 318.797 213.435 322.276 210.471 325.752C207.775 328.922 205.168 332.146 202.589 335.413C190.809 349.822 177.081 361.401 161.178 371.026C187.919 365.039 203.03 352.323 219.218 330.536C234.055 310.634 247 294.639 272.632 290.275C283.11 288.948 291.979 289.974 302.211 292.464C304.791 293.081 307.372 293.696 309.952 294.31C311.7 294.728 313.448 295.149 315.194 295.574C336.604 300.755 354.837 298.324 374.147 287.732C372.841 292.163 370.973 295.987 368.587 299.918C368.219 300.526 367.852 301.134 367.474 301.76C361.197 311.928 353.846 321.539 345.752 330.325C337.451 328.717 330.473 325.828 323.021 321.877C307.821 313.855 292.602 305.935 274.958 310.13C262.434 315.088 255.439 327.475 249.201 338.655C239.427 356.011 224.643 372.952 204.937 378.691C200.937 379.645 197.043 379.882 192.946 380.018C180.281 380.613 180.281 380.613 169.697 387.117C168.412 388.676 167.145 390.251 165.911 391.85C155.081 390.704 145.013 387.57 134.675 384.278C134.675 383.653 134.675 383.028 134.675 382.385C134.05 382.385 133.426 382.385 132.782 382.385C127.86 381.84 123.821 380.256 119.353 378.244C118.615 377.911 117.876 377.579 117.115 377.237C103.002 370.733 90.1594 362.529 77.8833 353.042C81.3389 351.808 83.6314 352.414 87.112 353.397C104.505 357.997 121.885 356.466 137.718 347.688C152.224 339.047 161.136 324.203 170.407 310.567C182.132 293.329 195.295 278.726 213.237 267.854C213.854 267.477 214.47 267.099 215.105 266.71C234.943 254.787 258.996 247.917 282.138 247.785C282.914 247.779 283.69 247.772 284.49 247.765C286.985 247.75 289.481 247.744 291.977 247.741C292.829 247.738 293.682 247.736 294.56 247.734C304.839 247.724 314.775 248.005 324.923 249.792C338.245 252.086 353.257 253.194 364.996 245.603C367.219 243.975 369.261 242.249 371.308 240.405C371.997 239.792 372.687 239.18 373.397 238.549C378.313 233.917 382.205 228.841 385.944 223.247C391.642 214.849 391.642 214.849 394.971 214.849Z" fill="#9AD6EC"/>
<path d="M343.551 78.8213C347.036 82.666 348.502 86.8979 348.653 92.0321C347.871 106.849 338.609 118.683 328.015 128.253C313.753 140.747 298.244 149.482 280.67 156.495C275.401 158.49 275.401 158.49 270.975 161.842C270.118 164.193 270.118 164.193 269.792 166.753C269.65 167.605 269.509 168.458 269.363 169.337C269.27 169.987 269.177 170.638 269.082 171.308C279.114 168.927 286.505 162.18 293.928 155.335C300.095 149.945 305.545 148.266 313.746 148.118C314.387 148.1 315.029 148.082 315.689 148.064C321.277 148.135 324.428 150.314 328.536 153.856C332.237 158.336 331.03 165.905 330.606 171.308C328.962 177.511 325.543 183.195 320.146 186.803C308.963 192.972 296.221 193.544 283.753 194.084C262.562 194.096 262.562 194.096 243.766 202.011C242.313 203.556 242.313 203.556 242.224 206.389C242.341 207.306 242.458 208.224 242.579 209.169C245.169 211.339 245.169 211.339 247.674 210.796C250.833 209.928 253.947 208.959 257.065 207.956C268.789 204.83 282.105 204.711 292.804 210.825C295.368 213.803 295.651 215.668 295.585 219.581C292.906 226.104 288.099 230.881 281.797 234.056C266.426 240.401 250.482 236.815 234.822 233.17C216.127 228.874 201.484 230.3 184.841 240.405C181.963 242.245 179.125 244.132 176.322 246.084C176.013 242.763 176.037 240.891 177.742 237.979C179.82 235.952 181.41 234.873 183.894 233.483C188.214 230.88 190.057 228.176 191.466 223.367C192.23 216.07 190.945 209.952 188.449 203.135C188 201.848 188 201.848 187.541 200.536C185.482 194.691 183.31 188.887 181.003 183.136C177.497 173.878 178.198 163.113 181.683 153.956C184.12 149.089 187.256 145.249 191.94 142.439C196.412 141.544 199.637 141.357 203.83 143.326C211.871 150.34 215.18 159.42 216.006 169.818C216.068 170.739 216.13 171.66 216.194 172.609C216.332 174.47 216.472 176.332 216.616 178.192C216.672 179.007 216.728 179.821 216.786 180.66C216.913 182.715 216.913 182.715 217.969 184.559C220.31 184.233 220.31 184.233 222.702 183.613C226.936 175.143 223.227 159.869 222.229 150.957C219.838 129.157 218.705 107.861 233.291 89.6103C239.39 83.1182 247.461 78.1734 256.385 77.2499C263.759 77.1207 269.218 77.1347 274.761 82.3338C278.949 86.522 280.366 90.6298 280.507 96.4209C279.726 115.478 268.023 130.198 255.96 143.98C252.972 147.364 252.972 147.364 251.098 151.431C267.027 146.021 276.465 122.876 284.426 109.365C301.23 80.8865 301.23 80.8865 318.301 75.7081C326.433 74.0256 336.565 73.4474 343.551 78.8213Z" fill="#114226"/>
<path d="M136.568 13.2373C143.68 35.7492 142.594 61.145 131.835 82.3341C120.131 103.308 101.696 119.382 78.4742 126.17C59.8571 131.242 36.5313 131.352 19.1978 122.088C20.0971 116.553 22.5936 112.108 25.1727 107.181C25.6789 106.213 26.185 105.246 26.7065 104.249C31.4055 95.4577 36.7814 87.382 42.861 79.4945C43.5894 78.5477 44.3179 77.6008 45.0684 76.6253C64.1099 52.7462 103.479 13.2373 136.568 13.2373Z" fill="#F59F52"/>
<path d="M145.205 245.138C149.411 247.441 152.374 250.383 155.635 253.852C159.861 257.935 165.834 258.987 171.368 260.43C173.701 261.311 174.815 262.093 176.322 264.068C176.795 267.263 176.795 267.263 176.322 270.694C173.321 274.19 169.87 276.734 166.124 279.351C153.749 288.06 147.1 299.261 143.542 314.052C142.907 317.832 143.074 321.597 143.193 325.415C143.242 326.999 143.282 328.582 143.312 330.166C143.334 330.857 143.356 331.547 143.378 332.258C143.193 334.112 143.193 334.112 141.3 336.951C128.947 336.551 128.947 336.551 124.263 332.218C120.583 327.843 119.911 324.496 119.53 318.967C115.782 321.154 112.034 323.34 108.172 325.593C109.519 325.515 110.866 325.437 112.254 325.356C116.395 325.376 116.395 325.376 118.702 327.072C119.926 330.481 119.648 332.56 118.584 336.005C109.905 342.355 93.2206 340.513 83.0296 339.14C76.9001 337.946 72.6219 335.412 68.1809 331.094C62.3787 321.769 61.1584 312.529 63.3632 301.7C66.7144 290.53 73.5962 281.747 81.669 273.534C82.2498 272.941 82.8305 272.348 83.4289 271.737C92.0371 263.607 104.243 256.403 116.277 256.319C117.677 256.363 119.078 256.417 120.477 256.496C120.702 255.639 120.702 255.639 120.932 254.766C122.362 249.865 123.478 246.934 128.049 244.191C133.953 242.223 139.548 242.532 145.205 245.138ZM128.996 255.549C128.429 255.959 127.863 256.369 127.28 256.792C125.412 259.446 125.319 261.822 125.209 265.015C126.526 268.636 127.744 269.577 131.125 271.463C135.842 272.957 139.316 273.381 143.963 271.522C146.727 269.152 147.262 267.652 147.926 264.068C148.055 259.687 147.823 256.597 145.027 253.124C138.696 250.026 134.269 251.257 128.996 255.549Z" fill="#A0C859"/>
<path d="M326.289 331.272C329.745 334.166 332.638 337.135 335.34 340.737C330.568 346.091 325.148 350.513 319.485 354.876C318.428 355.699 318.428 355.699 317.348 356.539C316.672 357.053 315.996 357.567 315.3 358.097C314.694 358.559 314.088 359.021 313.463 359.498C311.6 360.662 310.038 361.154 307.89 361.561C307.305 360.807 307.305 360.807 306.707 360.038C302.07 354.365 297.743 351.553 290.853 349.256C285.285 348.879 280.583 349.181 275.708 352.096C270.834 356.466 267.292 362.134 263.503 367.425C260.276 371.723 256.681 375.642 252.992 379.545C252.405 380.171 251.818 380.797 251.213 381.442C249.64 383.071 248.025 384.63 246.366 386.171C245.698 386.842 245.698 386.842 245.016 387.528C239.494 392.336 231.614 392.819 224.596 393.743C223.92 393.835 223.244 393.927 222.547 394.022C215.606 394.846 208.662 394.834 201.683 394.813C199.615 394.808 197.547 394.813 195.479 394.819C194.154 394.818 192.829 394.817 191.504 394.815C189.721 394.814 189.721 394.814 187.901 394.812C185.416 394.713 183.409 394.485 181.055 393.743C181.633 390.498 181.991 389.967 184.605 387.591C190.802 383.5 198.263 382.049 205.406 380.384C221.657 376.577 239.82 371.735 249.483 356.958C251.514 353.225 253.163 349.378 254.825 345.47C259.386 334.77 264.877 326.418 275.952 321.877C293.615 315.56 311.69 319.994 326.289 331.272Z" fill="#9AD6EC"/>
<path d="M144.317 174.148C147.712 177.301 149.688 181.395 151.712 185.506C152.474 184.998 153.235 184.491 154.019 183.968C158.399 182.277 161.598 182.802 165.91 184.56C168.352 186.519 168.701 187.099 169.223 190.298C168.67 194.653 167.144 197.524 164.96 201.283C163.836 203.408 163.836 203.408 164.254 205.531C164.954 207.424 164.954 207.424 166.443 209.465C168.232 212.81 168.264 214.882 167.803 218.635C166.038 222.533 164.73 223.964 160.882 225.852C154.722 227.072 148.095 224.264 142.247 222.421C142.137 223.458 142.027 224.495 141.914 225.564C141.168 229.795 139.859 231.115 136.568 233.779C131.529 235.459 126.965 235.488 122.074 233.365C118.307 229.773 116.728 225.385 115.104 220.494C114.253 218.439 113.63 217.287 111.958 215.795C108.812 214.768 105.756 214.14 102.489 213.621C99.5707 212.936 98.5767 212.467 96.8134 210.116C95.0481 206.585 96.0968 202.527 96.8134 198.757C98.1396 194.844 99.7773 192.562 103.524 190.601C107.494 189.018 111.455 188.563 115.685 188.168C116.791 188.052 116.791 188.052 117.92 187.933C119.718 187.746 121.517 187.571 123.316 187.399C123.477 186.623 123.638 185.847 123.804 185.048C124.034 184.028 124.263 183.007 124.499 181.957C124.719 180.946 124.939 179.936 125.165 178.895C126.253 175.76 127.412 174.355 129.942 172.255C134.76 170.018 140.075 171.486 144.317 174.148ZM130.415 194.912C127.55 198.422 126.71 200.889 127.102 205.383C128.688 209.349 130.787 211.238 134.675 212.955C139.051 213.503 141.603 212.825 145.086 210.116C147.338 206.532 147.131 203.893 146.528 199.822C146.101 197.66 146.101 197.66 144.613 195.445C140.101 192.737 134.917 191.694 130.415 194.912Z" fill="#F59F52"/>
<path d="M64.6314 208.637C67.471 209.169 67.471 209.169 69.6007 210.885C71.2717 213.928 71.6277 215.838 72.0854 219.226C72.4289 221.938 72.4289 221.938 73.1502 224.314C75.8331 226.247 75.8331 226.247 78.8294 227.153C80.6633 228.869 80.6633 228.869 81.669 230.939C81.604 234.126 81.3425 235.899 79.2435 238.334C75.9606 239.934 72.9989 240.102 69.3641 240.405C69.4135 241.688 69.4135 241.688 69.4639 242.997C69.4895 244.113 69.5152 245.229 69.5416 246.38C69.591 248.043 69.591 248.043 69.6414 249.741C69.3641 252.71 69.3641 252.71 68.1514 254.47C65.2945 256.365 62.2913 256.71 58.9523 256.496C55.1191 255.159 51.903 253.058 48.5404 250.817C45.4257 251.17 42.5215 251.852 39.4892 252.65C36.2355 252.71 36.2355 252.71 33.4551 250.462C31.2787 247.317 30.7086 244.498 30.9076 240.704C32.3204 235.5 36.6302 231.938 40.9682 229.046C40.6558 228.09 40.3435 227.133 40.0216 226.148C39.0341 222.553 38.5206 219.537 39.0751 215.795C42.1648 212.253 43.5285 211.231 48.1855 210.589C51.5184 211.083 52.6397 211.826 55.1661 213.902C58.0873 213.193 58.0873 213.193 59.7213 211.003C61.7918 209.169 61.7918 209.169 64.6314 208.637ZM52.504 225.674C49.8383 228.797 49.4152 230.636 49.4869 234.725C50.8018 237.612 50.8018 237.612 53.2731 239.458C56.1127 240.168 56.1127 240.168 58.9523 239.458C61.464 237.625 62.5122 236.26 63.6258 233.365C63.706 230.075 62.9511 228.72 60.8453 226.207C57.3632 224.314 56.0843 223.844 52.504 225.674Z" fill="#F59F52"/>
<path d="M360.889 206.084C365.546 209.002 368.234 213.327 369.944 218.437C370.987 223.655 370.261 228.878 367.818 233.6C364.533 238.128 360.8 241.847 355.217 243.243C348.595 244.001 342.807 243.297 337.233 239.457C331.616 233.593 330.24 228.623 330.356 220.597C330.72 216.386 331.656 213.366 334.393 210.115C342.71 203.254 350.984 201.149 360.889 206.084Z" fill="#F59F52"/>
<path d="M264.823 29.5636C269.591 34.3517 271.137 38.0532 271.449 44.8265C271.31 50.635 270.139 54.3577 266.243 58.6695C260.512 63.981 256.146 64.7872 248.444 64.6407C242.84 64.0996 239.601 61.5884 235.658 57.6638C231.908 52.9782 230.95 47.3105 231.373 41.4064C232.438 36.0812 235.108 31.4387 239.429 28.1069C247.499 23.1438 257.458 23.4219 264.823 29.5636Z" fill="#9AD6EC"/>
<path d="M91.1344 131.553C93.4228 135.052 94.6211 138.95 95.8671 142.911C96.2319 144.065 96.2319 144.065 96.6042 145.242C102.634 164.522 102.634 164.522 102.552 170.124C102.543 170.881 102.535 171.637 102.526 172.416C102.515 172.987 102.504 173.559 102.493 174.147C90.0695 179.944 90.0695 179.944 83.5621 178.879C80.3918 175.739 79.3992 171.598 78.1344 167.436C77.9051 166.696 77.6757 165.957 77.4395 165.194C76.9584 163.634 76.4813 162.072 76.0079 160.509C75.2823 158.122 74.5369 155.742 73.79 153.362C73.3241 151.842 72.8594 150.322 72.396 148.801C72.1723 148.092 71.9486 147.383 71.7181 146.653C70.6007 142.899 69.8524 140.023 71.2572 136.286C76.5381 131.778 84.4679 128.786 91.1344 131.553Z" fill="#F59F52"/>
<path d="M116.69 119.248C120.118 122.2 122.621 125.965 125.209 129.66C125.598 130.215 125.988 130.77 126.389 131.343C127.573 133.057 128.734 134.784 129.883 136.522C130.419 137.325 130.419 137.325 130.965 138.144C133.309 141.814 134.724 145.278 135.621 149.537C133.993 154.745 130.185 158.318 126.156 161.842C122.979 163.43 121.169 163.358 117.637 162.788C109.27 156.223 99.6301 141.904 96.8131 131.553C96.5765 128.536 96.5765 128.536 97.7596 125.874C103.489 120.343 108.708 117.423 116.69 119.248Z" fill="#F59F52"/>
<path d="M52.3858 136.523C53.2601 136.548 54.1343 136.574 55.035 136.6C56.2878 136.657 56.2878 136.657 57.5659 136.715C58.331 136.746 59.0961 136.776 59.8844 136.808C61.792 137.232 61.792 137.232 63.685 140.072C63.8929 142.569 63.9955 144.964 64.003 147.463C64.0093 148.185 64.0156 148.908 64.0221 149.652C64.0317 151.179 64.0361 152.706 64.0358 154.232C64.04 156.566 64.0743 158.897 64.1102 161.23C64.1158 162.715 64.1195 164.199 64.1213 165.684C64.1349 166.38 64.1485 167.076 64.1625 167.794C64.1337 171.031 63.938 172.861 61.9792 175.49C56.6912 179.295 49.1756 179.753 42.8614 178.88C39.573 176.907 39.1627 175.382 38.0511 171.714C37.0084 167.335 36.9315 163.131 37.0047 158.648C37.0122 157.86 37.0196 157.071 37.0273 156.259C37.2332 141.415 37.2332 141.415 40.0218 137.232C44.1638 135.852 48.061 136.323 52.3858 136.523Z" fill="#F59F52"/>
<path d="M139.408 95.5853C146.524 100.302 152.153 107.668 157.863 113.946C159.199 115.371 160.606 116.727 162.017 118.077C164.017 120.195 164.017 120.195 164.136 122.739C160.887 132.305 160.887 132.305 158.338 135.34C152.474 137.065 148.974 135.567 143.734 132.861C139.271 130.408 135.468 127.41 131.717 123.981C131.214 123.522 130.71 123.062 130.191 122.588C126.095 118.64 122.625 114.374 122.074 108.541C124.761 100.992 130.937 93.0754 139.408 95.5853Z" fill="#F59F52"/>
<path d="M179.99 40.6271C187.386 43.2736 193.885 45.3127 201.786 45.3856C203.772 45.4189 203.772 45.4189 204.718 46.3654C205.148 51.3561 204.974 54.9266 202.167 59.1658C199.096 62.6414 195.843 63.2622 191.441 63.6655C183.106 63.9086 176.249 63.182 169.815 57.6055C169.31 57.115 168.805 56.6245 168.284 56.1191C165.054 53.3241 161.436 53.6809 157.392 53.9376C154.186 54.7413 151.056 55.7192 147.926 56.7772C145.683 54.5336 145.707 53.878 145.619 50.8023C145.697 47.3409 145.884 46.5572 148.104 43.7033C148.982 43.02 149.861 42.3367 150.766 41.6327C151.586 40.9299 152.406 40.2271 153.251 39.503C161.248 33.6098 171.648 37.4823 179.99 40.6271Z" fill="#F59F52"/>
<path d="M201.523 5.48672C203.771 6.61073 203.771 6.61073 204.718 8.50379C205.248 12.8465 205.12 16.1705 203.239 20.158C198.739 25.1193 193.709 27.2567 187.07 27.6267C185.755 27.6467 184.44 27.6613 183.125 27.671C182.475 27.6906 181.826 27.7101 181.156 27.7302C177.658 27.7567 175.041 27.4542 171.848 25.9702C167.949 24.2394 166.216 24.5894 162.253 25.6523C160.163 26.516 158.828 27.4669 157.155 28.9725C154.552 31.2205 154.552 31.2205 151.83 31.5163C151.167 31.4187 150.503 31.3211 149.819 31.2205C148.081 28.3011 146.979 26.2541 146.979 22.8201C149.055 16.3331 152.226 11.7549 158.338 8.50379C161.451 7.48755 164.283 7.47305 167.544 7.53138C169.127 7.54876 169.127 7.54876 170.743 7.5665C172.941 7.59945 175.14 7.63634 177.339 7.67742C184.243 7.7448 195.48 3.61623 201.523 5.48672Z" fill="#F59F52"/>
<path d="M150.766 65.2962C152.455 66.4313 152.455 66.4313 154.256 67.8992C162.799 74.6479 172.514 75.4845 183.057 76.4519C183.978 76.5481 184.898 76.6442 185.847 76.7433C187.093 76.8559 187.093 76.8559 188.364 76.9707C191.168 77.7906 191.954 78.8684 193.36 81.3872C193.36 88.528 189.678 95.4284 185.787 101.264C182.314 101.791 180.637 101.599 177.649 99.7078C176.88 99.0306 176.11 98.3534 175.316 97.6557C169.03 92.2035 164.682 90.3976 156.504 89.4328C145.81 88.1654 145.81 88.1654 141.3 85.1734C138.86 81.7974 139.347 79.0165 139.895 75.0684C140.574 71.8137 141.656 69.1944 143.194 66.2427C146.009 64.835 147.616 64.888 150.766 65.2962Z" fill="#F59F52"/>
<path d="M14.4653 131.553C25.3943 132.529 25.3943 132.529 29.6098 135.339C31.9134 139.49 31.3845 142.28 30.3715 146.819C30.2307 147.455 30.0899 148.09 29.9449 148.745C29.6445 150.084 29.337 151.421 29.0228 152.757C28.5467 154.795 28.1008 156.837 27.6576 158.882C27.3611 160.186 27.0629 161.489 26.7628 162.792C26.493 163.971 26.2232 165.151 25.9452 166.366C24.8033 169.625 23.8288 171.129 21.091 173.2C18.5347 173.502 16.4077 173.605 13.8737 173.496C12.9074 173.482 12.9074 173.482 11.9215 173.468C7.21526 173.361 7.21526 173.361 5 172.254C5.86865 164.423 7.28726 156.876 9.20023 149.241C9.39446 148.462 9.58869 147.684 9.78881 146.881C11.1213 141.689 12.7048 136.616 14.4653 131.553Z" fill="#F59F52"/>
<path d="M364.681 137.233C368.631 139.173 370.615 140.768 372.254 144.805C372.811 148.853 372.715 152.312 371.011 156.045C367.369 160.631 367.369 160.631 363.735 161.842C358.447 162.189 355.02 162.062 350.483 159.003C347.238 155.433 347.166 151.745 347.304 147.116C347.803 143.724 349.199 141.675 351.43 139.126C355.658 136.307 359.724 136.652 364.681 137.233Z" fill="#A0C859"/>
<path d="M140.354 254.602C142.925 256.429 143.901 257.766 145.028 260.696C145.106 263.896 144.159 265.327 142.247 267.854C139.407 269.747 139.407 269.747 136.095 269.569C132.782 268.8 132.782 268.8 130.948 267.795C129.286 264.763 129.355 261.704 129.942 258.388C132.628 254.091 135.518 253.911 140.354 254.602Z" fill="#A0C859"/>
</svg>
