<svg width="1811" height="308" viewBox="0 0 1811 308" fill="none" xmlns="http://www.w3.org/2000/svg">
<path d="M1725.88 257.464C1732.53 261.489 1737.79 263.501 1741.65 263.501C1744.11 263.501 1745.35 262.639 1745.35 260.914C1745.35 259.682 1743.21 258.08 1738.94 256.109C1728.67 251.92 1723.54 245.062 1723.54 235.535C1723.54 229.457 1725.76 224.816 1730.19 221.613C1734.63 218.41 1739.93 216.808 1746.09 216.808C1752.33 216.808 1757.58 217.465 1761.86 218.779C1766.21 220.094 1768.38 221.818 1768.38 223.954C1768.38 225.761 1767.48 228.143 1765.67 231.099C1763.95 234.056 1762.76 235.658 1762.1 235.904C1758.57 233.933 1754.75 232.947 1750.64 232.947C1748.43 232.947 1747.32 233.728 1747.32 235.288C1747.32 236.274 1747.73 237.136 1748.55 237.875C1749.45 238.533 1751.05 239.395 1753.35 240.463C1755.65 241.448 1757.54 242.352 1759.02 243.173C1760.58 243.994 1762.31 245.144 1764.2 246.623C1768.14 249.744 1770.11 253.809 1770.11 258.819C1770.11 265.39 1767.93 270.729 1763.58 274.835C1759.23 278.86 1752.66 280.872 1743.87 280.872C1738.04 280.872 1732.74 279.887 1727.97 277.915C1723.21 275.944 1720.83 273.234 1720.83 269.784C1720.83 267.485 1721.36 265.062 1722.43 262.515C1723.58 259.969 1724.73 258.286 1725.88 257.464Z" fill="#1D1D1D"/>
<path d="M1709.95 276.314C1704.77 279.353 1698.12 280.872 1689.99 280.872C1681.86 280.872 1675 278.121 1669.41 272.618C1663.83 267.033 1661.04 259.353 1661.04 249.579C1661.04 239.723 1663.71 231.798 1669.05 225.802C1674.47 219.806 1681.28 216.808 1689.5 216.808C1697.71 216.808 1704.03 218.903 1708.47 223.091C1712.99 227.28 1715.24 232.373 1715.24 238.368C1715.24 251.674 1707.61 258.327 1692.33 258.327H1683.83C1683.83 260.791 1684.49 262.515 1685.8 263.501C1687.2 264.405 1689.21 264.856 1691.84 264.856C1697.59 264.856 1703.05 263.542 1708.22 260.914C1708.3 260.832 1708.67 261.407 1709.33 262.639C1711.3 266.17 1712.29 269.168 1712.29 271.632C1712.29 274.014 1711.51 275.575 1709.95 276.314ZM1694.55 240.709C1694.55 237.259 1692.86 235.535 1689.5 235.535C1687.94 235.535 1686.58 236.027 1685.43 237.013C1684.36 237.917 1683.83 239.272 1683.83 241.079V244.898H1690.48C1693.19 244.898 1694.55 243.502 1694.55 240.709Z" fill="#1D1D1D"/>
<path d="M1646.36 278.901C1646.36 279.887 1642.91 280.379 1636.01 280.379C1627.79 280.051 1623.69 279.517 1623.69 278.778V235.165H1617.4C1615.76 235.165 1614.94 232.331 1614.94 226.664C1614.94 225.186 1615.06 223.379 1615.31 221.243C1615.64 219.108 1616.25 218.04 1617.16 218.04H1623.69V207.199C1623.69 205.556 1627.14 204.735 1634.04 204.735C1641.02 204.735 1644.51 205.392 1644.51 206.706V214.591L1644.63 218.04H1655.1C1656.5 218.04 1657.2 220.915 1657.2 226.664C1657.2 232.414 1656.5 235.288 1655.1 235.288H1646.36V278.901Z" fill="#1D1D1D"/>
<path d="M1575.91 278.901C1575.91 279.476 1572.96 279.763 1567.04 279.763C1558.83 279.517 1554.72 279.065 1554.72 278.408V238.491H1551.52C1549.38 238.491 1547.99 236.685 1547.33 233.071C1547.17 232.003 1547.08 230.935 1547.08 229.867C1547.08 227.321 1547.58 224.775 1548.56 222.229C1550.04 218.615 1552.34 216.808 1555.46 216.808C1558.58 216.808 1561.38 217.547 1563.84 219.026C1566.3 220.504 1567.95 221.983 1568.77 223.461C1573.94 219.026 1580.1 216.808 1587.25 216.808C1594.39 216.808 1599.57 218.738 1602.77 222.599C1605.97 226.459 1607.58 232.783 1607.58 241.571V278.531C1607.58 279.517 1604.04 280.01 1596.98 280.01C1590 280.01 1586.51 279.517 1586.51 278.531V242.927C1586.51 238.82 1585.07 236.767 1582.2 236.767C1581.37 236.767 1580.22 237.136 1578.75 237.875C1577.27 238.533 1576.32 239.025 1575.91 239.354V278.901Z" fill="#1D1D1D"/>
<path d="M1536.82 276.314C1531.64 279.353 1524.99 280.872 1516.86 280.872C1508.73 280.872 1501.87 278.121 1496.29 272.618C1490.7 267.033 1487.91 259.353 1487.91 249.579C1487.91 239.723 1490.58 231.798 1495.92 225.802C1501.34 219.806 1508.15 216.808 1516.37 216.808C1524.58 216.808 1530.9 218.903 1535.34 223.091C1539.86 227.28 1542.12 232.373 1542.12 238.368C1542.12 251.674 1534.48 258.327 1519.2 258.327H1510.7C1510.7 260.791 1511.36 262.515 1512.67 263.501C1514.07 264.405 1516.08 264.856 1518.71 264.856C1524.46 264.856 1529.92 263.542 1535.09 260.914C1535.18 260.832 1535.54 261.407 1536.2 262.639C1538.17 266.17 1539.16 269.168 1539.16 271.632C1539.16 274.014 1538.38 275.575 1536.82 276.314ZM1521.42 240.709C1521.42 237.259 1519.73 235.535 1516.37 235.535C1514.81 235.535 1513.45 236.027 1512.3 237.013C1511.23 237.917 1510.7 239.272 1510.7 241.079V244.898H1517.35C1520.06 244.898 1521.42 243.502 1521.42 240.709Z" fill="#1D1D1D"/>
<path d="M1479.11 278.901C1479.11 279.558 1475.33 279.887 1467.77 279.887C1460.3 279.887 1456.56 279.599 1456.56 279.024V218.533C1456.56 217.958 1460.3 217.671 1467.77 217.671C1475.33 217.671 1479.11 217.917 1479.11 218.41V278.901ZM1479.11 211.141C1479.11 211.716 1475.33 212.003 1467.77 212.003C1460.3 212.003 1456.56 211.757 1456.56 211.264V193.523C1456.56 192.702 1460.3 192.291 1467.77 192.291C1475.33 192.291 1479.11 192.538 1479.11 193.031V211.141Z" fill="#1D1D1D"/>
<path d="M1445.42 278.655C1445.42 279.394 1441.23 279.763 1432.85 279.763C1426.28 279.681 1422.99 279.353 1422.99 278.778V194.879C1422.99 193.647 1426.98 193.031 1434.94 193.031C1441.93 193.277 1445.42 193.688 1445.42 194.263V278.655Z" fill="#1D1D1D"/>
<path d="M1367.11 234.919C1364.81 230.812 1363.66 227.486 1363.66 224.939C1363.66 222.311 1364.36 220.627 1365.75 219.888C1370.44 217.835 1376.84 216.808 1384.97 216.808C1393.19 216.808 1398.98 218.738 1402.35 222.599C1405.71 226.377 1407.4 232.003 1407.4 239.477V258.943H1411.59C1412.98 258.943 1414.05 259.764 1414.79 261.407C1415.61 263.049 1416.02 265.308 1416.02 268.183C1416.02 271.057 1415.28 273.891 1413.8 276.683C1412.41 279.476 1410.48 280.872 1408.01 280.872C1403.58 280.872 1400 279.681 1397.29 277.299C1396.06 276.314 1395.12 275.123 1394.46 273.727C1390.68 278.49 1384.81 280.872 1376.84 280.872C1370.85 280.872 1365.8 278.737 1361.69 274.466C1357.58 270.195 1355.53 265.144 1355.53 259.312C1355.53 245.925 1363.54 239.231 1379.55 239.231H1386.33V237.999C1386.33 235.863 1385.96 234.508 1385.22 233.933C1384.56 233.276 1382.96 232.947 1380.42 232.947C1377.29 232.947 1372.86 233.605 1367.11 234.919ZM1376.97 257.587C1376.97 259.394 1377.46 260.791 1378.44 261.776C1379.43 262.68 1380.66 263.131 1382.14 263.131C1383.7 263.131 1385.1 262.515 1386.33 261.283V251.797H1382.88C1378.94 251.797 1376.97 253.727 1376.97 257.587Z" fill="#1D1D1D"/>
<path d="M1327.34 249.087C1327.34 257.136 1330.38 261.16 1336.45 261.16C1340.4 261.16 1343.68 260.38 1346.31 258.819C1347.54 258.819 1348.53 260.955 1349.27 265.226C1350.09 269.415 1350.5 272.289 1350.5 273.85C1350.5 275.328 1350.29 276.314 1349.88 276.807C1345.53 279.517 1339.58 280.872 1332.02 280.872C1324.46 280.872 1318.02 278.08 1312.68 272.495C1307.42 266.827 1304.79 259.148 1304.79 249.456C1304.79 239.682 1307.38 231.798 1312.55 225.802C1317.81 219.806 1324.75 216.808 1333.37 216.808C1342.08 216.808 1348.12 218.903 1351.48 223.091C1352.22 223.995 1352.59 225.35 1352.59 227.157C1352.59 228.882 1352.26 231.017 1351.61 233.563C1350.13 238.82 1348.2 241.859 1345.82 242.68C1345.49 242.762 1345 242.803 1344.34 242.803C1343.76 242.803 1343.02 242.311 1342.12 241.325C1338.92 238.122 1336.33 236.52 1334.36 236.52C1332.47 236.52 1330.83 237.506 1329.43 239.477C1328.04 241.448 1327.34 244.651 1327.34 249.087Z" fill="#1D1D1D"/>
<path d="M1254.26 257.464C1260.91 261.489 1266.17 263.501 1270.03 263.501C1272.49 263.501 1273.72 262.639 1273.72 260.914C1273.72 259.682 1271.59 258.08 1267.32 256.109C1257.05 251.92 1251.91 245.062 1251.91 235.535C1251.91 229.457 1254.13 224.816 1258.57 221.613C1263 218.41 1268.3 216.808 1274.46 216.808C1280.7 216.808 1285.96 217.465 1290.23 218.779C1294.58 220.094 1296.76 221.818 1296.76 223.954C1296.76 225.761 1295.86 228.143 1294.05 231.099C1292.32 234.056 1291.13 235.658 1290.48 235.904C1286.94 233.933 1283.13 232.947 1279.02 232.947C1276.8 232.947 1275.69 233.728 1275.69 235.288C1275.69 236.274 1276.1 237.136 1276.92 237.875C1277.83 238.533 1279.43 239.395 1281.73 240.463C1284.03 241.448 1285.92 242.352 1287.4 243.173C1288.96 243.994 1290.68 245.144 1292.57 246.623C1296.51 249.744 1298.48 253.809 1298.48 258.819C1298.48 265.39 1296.31 270.729 1291.95 274.835C1287.6 278.86 1281.03 280.872 1272.24 280.872C1266.41 280.872 1261.11 279.887 1256.35 277.915C1251.59 275.944 1249.2 273.234 1249.2 269.784C1249.2 267.485 1249.74 265.062 1250.81 262.515C1251.96 259.969 1253.11 258.286 1254.26 257.464Z" fill="#1D1D1D"/>
<path d="M1195.78 234.919C1193.49 230.812 1192.34 227.486 1192.34 224.939C1192.34 222.311 1193.03 220.627 1194.43 219.888C1199.11 217.835 1205.52 216.808 1213.65 216.808C1221.86 216.808 1227.65 218.738 1231.02 222.599C1234.39 226.377 1236.07 232.003 1236.07 239.477V258.943H1240.26C1241.66 258.943 1242.72 259.764 1243.46 261.407C1244.28 263.049 1244.7 265.308 1244.7 268.183C1244.7 271.057 1243.96 273.891 1242.48 276.683C1241.08 279.476 1239.15 280.872 1236.69 280.872C1232.25 280.872 1228.68 279.681 1225.97 277.299C1224.74 276.314 1223.79 275.123 1223.14 273.727C1219.36 278.49 1213.48 280.872 1205.52 280.872C1199.52 280.872 1194.47 278.737 1190.36 274.466C1186.26 270.195 1184.2 265.144 1184.2 259.312C1184.2 245.925 1192.21 239.231 1208.23 239.231H1215V237.999C1215 235.863 1214.63 234.508 1213.9 233.933C1213.24 233.276 1211.64 232.947 1209.09 232.947C1205.97 232.947 1201.53 233.605 1195.78 234.919ZM1205.64 257.587C1205.64 259.394 1206.13 260.791 1207.12 261.776C1208.1 262.68 1209.34 263.131 1210.82 263.131C1212.38 263.131 1213.77 262.515 1215 261.283V251.797H1211.55C1207.61 251.797 1205.64 253.727 1205.64 257.587Z" fill="#1D1D1D"/>
<path d="M1120.39 218.779C1120.39 217.876 1123.92 217.424 1130.99 217.424C1138.05 217.424 1141.58 217.876 1141.58 218.779V254.754C1141.58 258.861 1142.9 260.914 1145.53 260.914C1147.5 260.914 1149.71 260.051 1152.18 258.327V218.779C1152.18 217.958 1155.67 217.547 1162.65 217.547C1169.63 217.547 1173.12 217.958 1173.12 218.779V259.189H1176.33C1179.12 259.189 1180.51 261.858 1180.51 267.197C1180.51 269.907 1179.94 272.659 1178.79 275.451C1177.15 279.065 1174.93 280.872 1172.14 280.872C1166.63 280.872 1162.57 278.614 1159.94 274.096L1159.82 274.219C1154.81 278.655 1149.43 280.872 1143.68 280.872C1135.71 280.872 1129.84 278.901 1126.06 274.959C1122.28 270.934 1120.39 264.322 1120.39 255.123V218.779Z" fill="#1D1D1D"/>
<path d="M1080.15 279.64C1072.19 279.64 1066.03 277.094 1061.67 272.002C1057.32 266.827 1055.14 259.23 1055.14 249.21C1055.14 239.107 1057.98 231.223 1063.64 225.555C1069.39 219.806 1076.99 216.931 1086.44 216.931C1095.96 216.931 1103.81 219.026 1109.97 223.215V284.568C1109.97 290.646 1107.5 295.287 1102.58 298.49C1097.65 301.775 1091.32 303.418 1083.6 303.418C1075.88 303.418 1068.98 302.432 1062.91 300.461C1062.08 298.49 1061.67 296.724 1061.67 295.163C1061.67 289.907 1062.54 286.047 1064.26 283.583C1069.76 285.965 1075.64 287.155 1081.88 287.155C1086.4 287.155 1088.65 285.554 1088.65 282.351V278.655C1085.12 279.312 1082.29 279.64 1080.15 279.64ZM1085.82 237.013C1080.32 237.013 1077.57 241.161 1077.57 249.456C1077.57 254.631 1078.63 257.998 1080.77 259.559C1082.17 260.626 1083.56 261.16 1084.96 261.16C1086.35 261.16 1087.59 261.037 1088.65 260.791V237.383C1087.67 237.136 1086.72 237.013 1085.82 237.013Z" fill="#1D1D1D"/>
<path d="M1035.27 279.887C1028.13 279.887 1024.27 278.737 1023.69 276.437L1019.63 260.544H1000.04L996.466 275.821C995.974 278.367 992.031 279.64 984.639 279.64C980.697 279.64 977.781 279.435 975.892 279.024C974.003 278.531 973.059 278.162 973.059 277.915L994.865 194.509C994.865 193.852 1000.49 193.523 1011.74 193.523C1023 193.523 1028.62 193.852 1028.62 194.509L1049.94 278.039C1049.94 278.614 1048.05 279.065 1044.27 279.394C1040.49 279.722 1037.49 279.887 1035.27 279.887ZM1003.12 244.898H1016.06L1010.51 219.395H1009.77L1003.12 244.898Z" fill="#1D1D1D"/>
<path d="M897.651 234.919C895.351 230.812 894.201 227.486 894.201 224.939C894.201 222.311 894.899 220.627 896.295 219.888C900.977 217.835 907.383 216.808 915.515 216.808C923.728 216.808 929.518 218.738 932.886 222.599C936.253 226.377 937.937 232.003 937.937 239.477V258.943H942.126C943.522 258.943 944.59 259.764 945.329 261.407C946.15 263.049 946.561 265.308 946.561 268.183C946.561 271.057 945.822 273.891 944.343 276.683C942.947 279.476 941.017 280.872 938.553 280.872C934.118 280.872 930.545 279.681 927.834 277.299C926.602 276.314 925.658 275.123 925.001 273.727C921.223 278.49 915.35 280.872 907.383 280.872C901.388 280.872 896.336 278.737 892.23 274.466C888.123 270.195 886.07 265.144 886.07 259.312C886.07 245.925 894.078 239.231 910.094 239.231H916.87V237.999C916.87 235.863 916.5 234.508 915.761 233.933C915.104 233.276 913.502 232.947 910.956 232.947C907.835 232.947 903.4 233.605 897.651 234.919ZM907.507 257.587C907.507 259.394 907.999 260.791 908.985 261.776C909.97 262.68 911.202 263.131 912.681 263.131C914.241 263.131 915.638 262.515 916.87 261.283V251.797H913.42C909.478 251.797 907.507 253.727 907.507 257.587Z" fill="#1D1D1D"/>
<path d="M833.697 237.752C833.122 237.752 832.835 235.986 832.835 232.455C832.835 222.845 833.615 218.04 835.176 218.04H874.477C875.051 218.04 876.324 219.847 878.296 223.461C880.267 227.075 881.252 229.128 881.252 229.621C881.252 230.032 881.211 230.278 881.129 230.36L857.228 260.421L878.665 258.943C879.979 258.943 880.636 261.858 880.636 267.69C880.636 269.907 880.431 272.454 880.02 275.328C879.61 278.203 878.912 279.64 877.926 279.64H838.502C837.27 279.64 835.792 277.587 834.067 273.48C832.342 269.374 831.479 266.91 831.479 266.088C831.479 265.185 831.562 264.651 831.726 264.487L855.257 237.013L833.697 237.752Z" fill="#1D1D1D"/>
<path d="M820.598 276.314C815.423 279.353 808.77 280.872 800.639 280.872C792.508 280.872 785.65 278.121 780.065 272.618C774.48 267.033 771.687 259.353 771.687 249.579C771.687 239.723 774.357 231.798 779.695 225.802C785.116 219.806 791.933 216.808 800.146 216.808C808.36 216.808 814.684 218.903 819.119 223.091C823.636 227.28 825.895 232.373 825.895 238.368C825.895 251.674 818.257 258.327 802.98 258.327H794.479C794.479 260.791 795.136 262.515 796.45 263.501C797.847 264.405 799.859 264.856 802.487 264.856C808.237 264.856 813.698 263.542 818.873 260.914C818.955 260.832 819.325 261.407 819.982 262.639C821.953 266.17 822.938 269.168 822.938 271.632C822.938 274.014 822.158 275.575 820.598 276.314ZM805.198 240.709C805.198 237.259 803.514 235.535 800.146 235.535C798.586 235.535 797.231 236.027 796.081 237.013C795.013 237.917 794.479 239.272 794.479 241.079V244.898H801.132C803.842 244.898 805.198 243.502 805.198 240.709Z" fill="#1D1D1D"/>
<path d="M762.883 278.655C762.883 279.394 758.694 279.763 750.317 279.763C743.746 279.681 740.461 279.353 740.461 278.778V194.879C740.461 193.647 744.444 193.031 752.411 193.031C759.392 193.277 762.883 193.688 762.883 194.263V278.655Z" fill="#1D1D1D"/>
<path d="M684.577 234.919C682.277 230.812 681.127 227.486 681.127 224.939C681.127 222.311 681.826 220.627 683.222 219.888C687.903 217.835 694.31 216.808 702.441 216.808C710.654 216.808 716.445 218.738 719.812 222.599C723.18 226.377 724.863 232.003 724.863 239.477V258.943H729.052C730.448 258.943 731.516 259.764 732.256 261.407C733.077 263.049 733.487 265.308 733.487 268.183C733.487 271.057 732.748 273.891 731.27 276.683C729.874 279.476 727.943 280.872 725.479 280.872C721.044 280.872 717.472 279.681 714.761 277.299C713.529 276.314 712.584 275.123 711.927 273.727C708.149 278.49 702.277 280.872 694.31 280.872C688.314 280.872 683.263 278.737 679.156 274.466C675.05 270.195 672.996 265.144 672.996 259.312C672.996 245.925 681.004 239.231 697.02 239.231H703.796V237.999C703.796 235.863 703.427 234.508 702.687 233.933C702.03 233.276 700.429 232.947 697.883 232.947C694.762 232.947 690.326 233.605 684.577 234.919ZM694.433 257.587C694.433 259.394 694.926 260.791 695.912 261.776C696.897 262.68 698.129 263.131 699.607 263.131C701.168 263.131 702.564 262.515 703.796 261.283V251.797H700.347C696.404 251.797 694.433 253.727 694.433 257.587Z" fill="#1D1D1D"/>
<path d="M654.949 279.517C654.949 280.092 651.212 280.379 643.738 280.379C636.264 280.215 632.527 279.887 632.527 279.394V238.491H629.201C627.886 238.491 626.819 237.711 625.997 236.151C625.258 234.508 624.889 232.496 624.889 230.114C624.889 221.243 627.517 216.808 632.773 216.808C636.469 216.808 639.549 217.958 642.013 220.258C644.477 222.475 645.709 225.022 645.709 227.896C647.434 224.529 649.734 221.859 652.609 219.888C655.565 217.835 658.563 216.808 661.602 216.808C666.366 216.808 669.241 218.04 670.226 220.504C670.473 221.161 670.596 222.147 670.596 223.461C670.596 224.693 670.185 226.952 669.364 230.237C668.625 233.522 667.844 235.904 667.023 237.383C666.202 238.861 665.709 239.6 665.545 239.6C665.38 239.6 664.6 239.313 663.204 238.738C661.89 238.081 660.699 237.752 659.631 237.752C656.51 237.752 654.949 240.216 654.949 245.144V279.517Z" fill="#1D1D1D"/>
<path d="M560.339 218.779C560.339 217.876 563.87 217.424 570.934 217.424C577.997 217.424 581.529 217.876 581.529 218.779V254.754C581.529 258.861 582.843 260.914 585.471 260.914C587.443 260.914 589.66 260.051 592.124 258.327V218.779C592.124 217.958 595.615 217.547 602.596 217.547C609.577 217.547 613.068 217.958 613.068 218.779V259.189H616.271C619.064 259.189 620.46 261.858 620.46 267.197C620.46 269.907 619.885 272.659 618.735 275.451C617.093 279.065 614.875 280.872 612.082 280.872C606.58 280.872 602.514 278.614 599.886 274.096L599.763 274.219C594.753 278.655 589.373 280.872 583.623 280.872C575.656 280.872 569.784 278.901 566.006 274.959C562.228 270.934 560.339 264.322 560.339 255.123V218.779Z" fill="#1D1D1D"/>
<path d="M543.933 278.901C543.933 279.887 540.483 280.379 533.584 280.379C525.371 280.051 521.264 279.517 521.264 278.778V235.165H514.981C513.338 235.165 512.517 232.331 512.517 226.664C512.517 225.186 512.64 223.379 512.886 221.243C513.215 219.108 513.831 218.04 514.734 218.04H521.264V207.199C521.264 205.556 524.714 204.735 531.613 204.735C538.594 204.735 542.085 205.392 542.085 206.706V214.591L542.208 218.04H552.68C554.076 218.04 554.774 220.915 554.774 226.664C554.774 232.414 554.076 235.288 552.68 235.288H543.933V278.901Z" fill="#1D1D1D"/>
<path d="M459.713 234.919C457.413 230.812 456.263 227.486 456.263 224.939C456.263 222.311 456.962 220.627 458.358 219.888C463.039 217.835 469.446 216.808 477.577 216.808C485.79 216.808 491.581 218.738 494.948 222.599C498.316 226.377 499.999 232.003 499.999 239.477V258.943H504.188C505.584 258.943 506.652 259.764 507.392 261.407C508.213 263.049 508.623 265.308 508.623 268.183C508.623 271.057 507.884 273.891 506.406 276.683C505.009 279.476 503.079 280.872 500.615 280.872C496.18 280.872 492.607 279.681 489.897 277.299C488.665 276.314 487.72 275.123 487.063 273.727C483.285 278.49 477.413 280.872 469.446 280.872C463.45 280.872 458.399 278.737 454.292 274.466C450.186 270.195 448.132 265.144 448.132 259.312C448.132 245.925 456.14 239.231 472.156 239.231H478.932V237.999C478.932 235.863 478.563 234.508 477.823 233.933C477.166 233.276 475.565 232.947 473.018 232.947C469.897 232.947 465.462 233.605 459.713 234.919ZM469.569 257.587C469.569 259.394 470.062 260.791 471.047 261.776C472.033 262.68 473.265 263.131 474.743 263.131C476.304 263.131 477.7 262.515 478.932 261.283V251.797H475.483C471.54 251.797 469.569 253.727 469.569 257.587Z" fill="#1D1D1D"/>
<path d="M440.194 276.93C440.194 278.655 436.333 279.517 428.613 279.517C420.892 279.517 416.703 278.901 416.046 277.669L395.472 239.231V277.546C395.472 279.024 391.653 279.763 384.014 279.763C376.458 279.763 372.68 279.024 372.68 277.546V195.125C372.68 193.893 375.924 193.277 382.413 193.277C384.959 193.277 387.916 193.523 391.283 194.016C394.733 194.427 396.827 195.248 397.566 196.48L417.278 234.426V195.741C417.278 194.181 421.097 193.4 428.736 193.4C436.374 193.4 440.194 194.181 440.194 195.741V276.93Z" fill="#1D1D1D"/>
<path d="M1761.49 93.9186C1759.19 89.812 1758.04 86.4856 1758.04 83.9394C1758.04 81.3112 1758.74 79.6274 1760.14 78.8882C1764.82 76.8349 1771.23 75.8082 1779.36 75.8082C1787.57 75.8082 1793.36 77.7384 1796.73 81.5986C1800.1 85.3768 1801.78 91.0029 1801.78 98.4771V117.943H1805.97C1807.37 117.943 1808.43 118.764 1809.17 120.407C1809.99 122.049 1810.4 124.308 1810.4 127.183C1810.4 130.057 1809.67 132.891 1808.19 135.683C1806.79 138.476 1804.86 139.872 1802.4 139.872C1797.96 139.872 1794.39 138.681 1791.68 136.299C1790.45 135.314 1789.5 134.123 1788.84 132.727C1785.07 137.49 1779.19 139.872 1771.23 139.872C1765.23 139.872 1760.18 137.737 1756.07 133.466C1751.97 129.195 1749.91 124.144 1749.91 118.312C1749.91 104.925 1757.92 98.2307 1773.94 98.2307H1780.71V96.9986C1780.71 94.8632 1780.34 93.508 1779.6 92.933C1778.95 92.276 1777.35 91.9474 1774.8 91.9474C1771.68 91.9474 1767.24 92.6045 1761.49 93.9186ZM1771.35 116.587C1771.35 118.394 1771.84 119.791 1772.83 120.776C1773.81 121.68 1775.05 122.131 1776.52 122.131C1778.09 122.131 1779.48 121.515 1780.71 120.283V110.797H1777.26C1773.32 110.797 1771.35 112.727 1771.35 116.587Z" fill="#1D1D1D"/>
<path d="M1742.59 137.655C1742.59 138.394 1738.4 138.763 1730.02 138.763C1723.45 138.681 1720.17 138.353 1720.17 137.778V53.8786C1720.17 52.6466 1724.15 52.0307 1732.12 52.0307C1739.1 52.277 1742.59 52.6877 1742.59 53.2626V137.655Z" fill="#1D1D1D"/>
<path d="M1683.6 135.314C1678.43 138.353 1671.77 139.872 1663.64 139.872C1655.51 139.872 1648.65 137.121 1643.07 131.618C1637.48 126.033 1634.69 118.353 1634.69 108.579C1634.69 98.7234 1637.36 90.7976 1642.7 84.8018C1648.12 78.8061 1654.93 75.8082 1663.15 75.8082C1671.36 75.8082 1677.69 77.9026 1682.12 82.0914C1686.64 86.2802 1688.9 91.3725 1688.9 97.3682C1688.9 110.674 1681.26 117.327 1665.98 117.327H1657.48C1657.48 119.791 1658.14 121.515 1659.45 122.501C1660.85 123.405 1662.86 123.856 1665.49 123.856C1671.24 123.856 1676.7 122.542 1681.87 119.914C1681.96 119.832 1682.33 120.407 1682.98 121.639C1684.95 125.17 1685.94 128.168 1685.94 130.632C1685.94 133.014 1685.16 134.575 1683.6 135.314ZM1668.2 99.709C1668.2 96.2594 1666.52 94.5346 1663.15 94.5346C1661.59 94.5346 1660.23 95.0274 1659.08 96.013C1658.01 96.9165 1657.48 98.2717 1657.48 100.079V103.898H1664.13C1666.84 103.898 1668.2 102.502 1668.2 99.709Z" fill="#1D1D1D"/>
<path d="M1598.54 53.1395C1598.54 51.9074 1601.78 51.2914 1608.27 51.2914C1610.49 51.2914 1613.03 51.4557 1615.91 51.7842C1618.87 52.0306 1620.34 52.4002 1620.34 52.893V117.819H1624.66C1626.71 117.819 1628.06 119.667 1628.72 123.363C1628.89 124.431 1628.97 125.91 1628.97 127.799C1628.97 129.606 1628.39 131.823 1627.24 134.451C1625.6 138.065 1622.97 139.872 1619.36 139.872C1616.65 139.872 1614.23 139.338 1612.09 138.271C1610.04 137.203 1608.64 136.094 1607.9 134.944L1606.79 133.343C1602.28 137.696 1596.61 139.872 1589.79 139.872C1582.97 139.872 1577.14 137.039 1572.3 131.371C1567.45 125.704 1565.03 117.819 1565.03 107.717C1565.03 97.5325 1567.57 89.6888 1572.67 84.1858C1577.76 78.6008 1584.12 75.8082 1591.76 75.8082C1593.98 75.8082 1596.24 76.0546 1598.54 76.5474V53.1395ZM1594.47 95.5202C1589.87 95.5202 1587.57 99.668 1587.57 107.963C1587.57 112.152 1588.23 115.191 1589.54 117.08C1590.86 118.887 1592.3 119.791 1593.86 119.791C1595.5 119.791 1597.06 119.093 1598.54 117.696V96.7523C1597.14 95.9309 1595.79 95.5202 1594.47 95.5202Z" fill="#1D1D1D"/>
<path d="M1488.26 93.9186C1485.96 89.812 1484.81 86.4856 1484.81 83.9394C1484.81 81.3112 1485.51 79.6274 1486.91 78.8882C1491.59 76.8349 1498 75.8082 1506.13 75.8082C1514.34 75.8082 1520.13 77.7384 1523.5 81.5986C1526.87 85.3768 1528.55 91.0029 1528.55 98.4771V117.943H1532.74C1534.14 117.943 1535.2 118.764 1535.94 120.407C1536.76 122.049 1537.17 124.308 1537.17 127.183C1537.17 130.057 1536.44 132.891 1534.96 135.683C1533.56 138.476 1531.63 139.872 1529.17 139.872C1524.73 139.872 1521.16 138.681 1518.45 136.299C1517.22 135.314 1516.27 134.123 1515.61 132.727C1511.84 137.49 1505.96 139.872 1498 139.872C1492 139.872 1486.95 137.737 1482.84 133.466C1478.74 129.195 1476.68 124.144 1476.68 118.312C1476.68 104.925 1484.69 98.2307 1500.71 98.2307H1507.48V96.9986C1507.48 94.8632 1507.11 93.508 1506.37 92.933C1505.72 92.276 1504.12 91.9474 1501.57 91.9474C1498.45 91.9474 1494.01 92.6045 1488.26 93.9186ZM1498.12 116.587C1498.12 118.394 1498.61 119.791 1499.6 120.776C1500.58 121.68 1501.82 122.131 1503.29 122.131C1504.86 122.131 1506.25 121.515 1507.48 120.283V110.797H1504.03C1500.09 110.797 1498.12 112.727 1498.12 116.587Z" fill="#1D1D1D"/>
<path d="M1427.63 116.464C1434.28 120.489 1439.54 122.501 1443.4 122.501C1445.86 122.501 1447.09 121.639 1447.09 119.914C1447.09 118.682 1444.96 117.08 1440.69 115.109C1430.42 110.92 1425.29 104.062 1425.29 94.5346C1425.29 88.4568 1427.5 83.8163 1431.94 80.6131C1436.37 77.4098 1441.67 75.8082 1447.83 75.8082C1454.07 75.8082 1459.33 76.4653 1463.6 77.7794C1467.95 79.0936 1470.13 80.8184 1470.13 82.9538C1470.13 84.7608 1469.23 87.1427 1467.42 90.0994C1465.69 93.0563 1464.5 94.6578 1463.85 94.9042C1460.32 92.933 1456.5 91.9474 1452.39 91.9474C1450.17 91.9474 1449.06 92.7277 1449.06 94.2882C1449.06 95.2738 1449.47 96.1362 1450.29 96.8755C1451.2 97.5325 1452.8 98.3949 1455.1 99.4626C1457.4 100.448 1459.29 101.352 1460.77 102.173C1462.33 102.994 1464.05 104.144 1465.94 105.623C1469.88 108.744 1471.85 112.809 1471.85 117.819C1471.85 124.39 1469.68 129.729 1465.33 133.835C1460.97 137.86 1454.4 139.872 1445.61 139.872C1439.78 139.872 1434.48 138.887 1429.72 136.915C1424.96 134.944 1422.57 132.234 1422.57 128.784C1422.57 126.485 1423.11 124.062 1424.18 121.515C1425.33 118.969 1426.48 117.286 1427.63 116.464Z" fill="#1D1D1D"/>
<path d="M1382.93 137.901C1382.93 138.476 1379.97 138.763 1374.06 138.763C1365.85 138.517 1361.74 138.065 1361.74 137.408V97.4914H1358.54C1356.4 97.4914 1355.01 95.6845 1354.35 92.0706C1354.18 91.0029 1354.1 89.9352 1354.1 88.8674C1354.1 86.3213 1354.6 83.7752 1355.58 81.229C1357.06 77.6152 1359.36 75.8082 1362.48 75.8082C1365.6 75.8082 1368.39 76.5474 1370.86 78.0258C1373.32 79.5042 1374.96 80.9826 1375.79 82.461C1380.96 78.0258 1387.12 75.8082 1394.27 75.8082C1401.41 75.8082 1406.59 77.7384 1409.79 81.5986C1412.99 85.4589 1414.59 91.7832 1414.59 100.571V137.531C1414.59 138.517 1411.06 139.01 1404 139.01C1397.02 139.01 1393.53 138.517 1393.53 137.531V101.927C1393.53 97.82 1392.09 95.7666 1389.21 95.7666C1388.39 95.7666 1387.24 96.1362 1385.77 96.8755C1384.29 97.5325 1383.34 98.0253 1382.93 98.3538V137.901Z" fill="#1D1D1D"/>
<path d="M1343.84 135.314C1338.66 138.353 1332.01 139.872 1323.88 139.872C1315.75 139.872 1308.89 137.121 1303.3 131.618C1297.72 126.033 1294.93 118.353 1294.93 108.579C1294.93 98.7234 1297.6 90.7976 1302.93 84.8018C1308.36 78.8061 1315.17 75.8082 1323.39 75.8082C1331.6 75.8082 1337.92 77.9026 1342.36 82.0914C1346.88 86.2802 1349.13 91.3725 1349.13 97.3682C1349.13 110.674 1341.5 117.327 1326.22 117.327H1317.72C1317.72 119.791 1318.38 121.515 1319.69 122.501C1321.09 123.405 1323.1 123.856 1325.73 123.856C1331.48 123.856 1336.94 122.542 1342.11 119.914C1342.19 119.832 1342.56 120.407 1343.22 121.639C1345.19 125.17 1346.18 128.168 1346.18 130.632C1346.18 133.014 1345.4 134.575 1343.84 135.314ZM1328.44 99.709C1328.44 96.2594 1326.75 94.5346 1323.39 94.5346C1321.82 94.5346 1320.47 95.0274 1319.32 96.013C1318.25 96.9165 1317.72 98.2717 1317.72 100.079V103.898H1324.37C1327.08 103.898 1328.44 102.502 1328.44 99.709Z" fill="#1D1D1D"/>
<path d="M1259 93.4258H1252.96C1251.73 93.4258 1251.12 90.7154 1251.12 85.2946C1251.12 79.7917 1251.73 77.0403 1252.96 77.0403H1259V74.3298C1259 65.6237 1260.81 59.628 1264.42 56.3426C1268.12 52.9752 1273.25 51.2914 1279.82 51.2914C1286.39 51.2914 1292.18 52.4824 1297.19 54.8643C1297.85 55.1106 1298.18 56.0141 1298.18 57.5746C1298.18 59.053 1297.48 61.476 1296.08 64.8434C1294.69 68.2109 1293.5 70.141 1292.51 70.6338C1289.72 68.909 1286.84 68.0466 1283.89 68.0466C1280.68 68.0466 1279.08 70.1821 1279.08 74.453V77.0403H1289.31C1290.79 77.0403 1291.52 79.6685 1291.52 84.925C1291.52 90.6744 1290.58 93.549 1288.69 93.549H1280.81V137.162C1280.81 138.147 1277.15 138.64 1269.84 138.64C1262.61 138.64 1259 138.147 1259 137.162V93.4258Z" fill="#1D1D1D"/>
<path d="M1240.85 135.314C1235.67 138.353 1229.02 139.872 1220.89 139.872C1212.76 139.872 1205.9 137.121 1200.32 131.618C1194.73 126.033 1191.94 118.353 1191.94 108.579C1191.94 98.7234 1194.61 90.7976 1199.95 84.8018C1205.37 78.8061 1212.18 75.8082 1220.4 75.8082C1228.61 75.8082 1234.94 77.9026 1239.37 82.0914C1243.89 86.2802 1246.15 91.3725 1246.15 97.3682C1246.15 110.674 1238.51 117.327 1223.23 117.327H1214.73C1214.73 119.791 1215.39 121.515 1216.7 122.501C1218.1 123.405 1220.11 123.856 1222.74 123.856C1228.49 123.856 1233.95 122.542 1239.12 119.914C1239.21 119.832 1239.58 120.407 1240.23 121.639C1242.2 125.17 1243.19 128.168 1243.19 130.632C1243.19 133.014 1242.41 134.575 1240.85 135.314ZM1225.45 99.709C1225.45 96.2594 1223.77 94.5346 1220.4 94.5346C1218.84 94.5346 1217.48 95.0274 1216.33 96.013C1215.26 96.9165 1214.73 98.2717 1214.73 100.079V103.898H1221.38C1224.09 103.898 1225.45 102.502 1225.45 99.709Z" fill="#1D1D1D"/>
<path d="M1118.98 132.973V59.053C1118.98 56.9997 1119.47 55.3981 1120.46 54.2482C1121.52 53.0162 1122.88 52.4002 1124.52 52.4002H1145.1C1158.16 52.4002 1168.05 55.6856 1174.79 62.2563C1181.61 68.8269 1185.01 79.1757 1185.01 93.3026C1185.01 123.528 1172.12 138.64 1146.33 138.64H1125.26C1121.07 138.64 1118.98 136.751 1118.98 132.973ZM1142.63 75.8082V112.645C1142.63 114.37 1142.76 115.479 1143 115.971C1143.25 116.382 1143.99 116.587 1145.22 116.587C1149.74 116.587 1153.15 114.904 1155.45 111.536C1157.83 108.169 1159.02 102.584 1159.02 94.7811C1159.02 86.8963 1157.79 81.7629 1155.32 79.3811C1152.94 76.9992 1149.12 75.8082 1143.86 75.8082H1142.63Z" fill="#1D1D1D"/>
<path d="M1039.26 93.9186C1036.96 89.812 1035.81 86.4856 1035.81 83.9394C1035.81 81.3112 1036.51 79.6274 1037.9 78.8882C1042.58 76.8349 1048.99 75.8082 1057.12 75.8082C1065.34 75.8082 1071.13 77.7384 1074.49 81.5986C1077.86 85.3768 1079.54 91.0029 1079.54 98.4771V117.943H1083.73C1085.13 117.943 1086.2 118.764 1086.94 120.407C1087.76 122.049 1088.17 124.308 1088.17 127.183C1088.17 130.057 1087.43 132.891 1085.95 135.683C1084.55 138.476 1082.62 139.872 1080.16 139.872C1075.73 139.872 1072.15 138.681 1069.44 136.299C1068.21 135.314 1067.27 134.123 1066.61 132.727C1062.83 137.49 1056.96 139.872 1048.99 139.872C1043 139.872 1037.94 137.737 1033.84 133.466C1029.73 129.195 1027.68 124.144 1027.68 118.312C1027.68 104.925 1035.69 98.2307 1051.7 98.2307H1058.48V96.9986C1058.48 94.8632 1058.11 93.508 1057.37 92.933C1056.71 92.276 1055.11 91.9474 1052.56 91.9474C1049.44 91.9474 1045.01 92.6045 1039.26 93.9186ZM1049.11 116.587C1049.11 118.394 1049.61 119.791 1050.59 120.776C1051.58 121.68 1052.81 122.131 1054.29 122.131C1055.85 122.131 1057.25 121.515 1058.48 120.283V110.797H1055.03C1051.09 110.797 1049.11 112.727 1049.11 116.587Z" fill="#1D1D1D"/>
<path d="M1020.35 137.655C1020.35 138.394 1016.16 138.763 1007.79 138.763C1001.21 138.681 997.93 138.353 997.93 137.778V53.8786C997.93 52.6466 1001.91 52.0307 1009.88 52.0307C1016.86 52.277 1020.35 52.6877 1020.35 53.2626V137.655Z" fill="#1D1D1D"/>
<path d="M952.843 138.517C952.843 139.092 949.106 139.379 941.632 139.379C934.158 139.215 930.421 138.887 930.421 138.394V97.4914H927.094C925.78 97.4914 924.712 96.7112 923.891 95.1507C923.152 93.508 922.782 91.4957 922.782 89.1138C922.782 80.2434 925.411 75.8082 930.667 75.8082C934.363 75.8082 937.443 76.9581 939.907 79.2578C942.371 81.4754 943.603 84.0216 943.603 86.8962C945.328 83.5288 947.628 80.8594 950.502 78.8882C953.459 76.8349 956.457 75.8082 959.496 75.8082C964.26 75.8082 967.134 77.0402 968.12 79.5042C968.366 80.1613 968.49 81.1469 968.49 82.461C968.49 83.693 968.079 85.9517 967.258 89.237C966.518 92.5224 965.738 94.9042 964.917 96.3826C964.095 97.861 963.603 98.6003 963.438 98.6003C963.274 98.6003 962.494 98.3128 961.098 97.7378C959.783 97.0808 958.593 96.7523 957.525 96.7523C954.404 96.7523 952.843 99.2162 952.843 104.144V138.517Z" fill="#1D1D1D"/>
<path d="M867.996 131.371C862.904 125.704 860.357 117.861 860.357 107.84C860.357 97.82 862.904 89.9763 867.996 84.3091C873.17 78.6418 880.111 75.8082 888.817 75.8082C897.523 75.8082 904.422 78.6418 909.514 84.3091C914.607 89.9763 917.153 97.82 917.153 107.84C917.153 117.861 914.607 125.704 909.514 131.371C904.422 137.039 897.523 139.872 888.817 139.872C880.111 139.872 873.17 137.039 867.996 131.371ZM888.817 96.3826C884.217 96.3826 881.917 100.161 881.917 107.717C881.917 115.273 884.217 119.051 888.817 119.051C893.498 119.051 895.839 115.273 895.839 107.717C895.839 100.161 893.498 96.3826 888.817 96.3826Z" fill="#1D1D1D"/>
<path d="M820.849 161.063C820.849 161.638 817.317 161.925 810.254 161.925C803.272 161.925 799.782 161.638 799.782 161.063V97.6147H795.593C793.622 97.6147 792.266 95.8077 791.527 92.1939C791.281 91.044 791.158 89.5656 791.158 87.7587C791.158 85.9517 791.732 83.8162 792.882 81.3522C794.525 77.7384 797.153 75.9315 800.767 75.9315C803.149 75.9315 805.326 76.5064 807.297 77.6562C809.35 78.724 810.746 79.7507 811.486 80.7363C812.307 81.6397 812.717 82.1736 812.717 82.3379C818.22 78.0669 824.175 75.9315 830.581 75.9315C836.988 75.9315 842.491 78.4365 847.09 83.4467C851.69 88.3747 853.99 96.0541 853.99 106.485C853.99 116.834 851.69 124.883 847.09 130.632C842.491 136.299 836.659 139.133 829.596 139.133C826.393 139.133 823.477 138.969 820.849 138.64V161.063ZM825.9 97.4915C824.504 97.4915 823.149 97.9432 821.834 98.8467V120.653C823.231 120.817 824.339 120.899 825.161 120.899C826.064 120.899 826.763 120.899 827.255 120.899C830.623 120.571 832.306 116.259 832.306 107.963C832.306 100.982 830.171 97.4915 825.9 97.4915Z" fill="#1D1D1D"/>
<path d="M715.257 93.9186C712.957 89.812 711.807 86.4856 711.807 83.9394C711.807 81.3112 712.505 79.6274 713.902 78.8882C718.583 76.8349 724.99 75.8082 733.121 75.8082C741.334 75.8082 747.125 77.7384 750.492 81.5986C753.86 85.3768 755.543 91.0029 755.543 98.4771V117.943H759.732C761.128 117.943 762.196 118.764 762.935 120.407C763.757 122.049 764.167 124.308 764.167 127.183C764.167 130.057 763.428 132.891 761.95 135.683C760.553 138.476 758.623 139.872 756.159 139.872C751.724 139.872 748.151 138.681 745.441 136.299C744.209 135.314 743.264 134.123 742.607 132.727C738.829 137.49 732.957 139.872 724.99 139.872C718.994 139.872 713.943 137.737 709.836 133.466C705.729 129.195 703.676 124.144 703.676 118.312C703.676 104.925 711.684 98.2307 727.7 98.2307H734.476V96.9986C734.476 94.8632 734.106 93.508 733.367 92.933C732.71 92.276 731.109 91.9474 728.562 91.9474C725.441 91.9474 721.006 92.6045 715.257 93.9186ZM725.113 116.587C725.113 118.394 725.606 119.791 726.591 120.776C727.577 121.68 728.809 122.131 730.287 122.131C731.848 122.131 733.244 121.515 734.476 120.283V110.797H731.026C727.084 110.797 725.113 112.727 725.113 116.587Z" fill="#1D1D1D"/>
<path d="M651.304 96.7523C650.729 96.7523 650.441 94.9864 650.441 91.4547C650.441 81.8451 651.221 77.0403 652.782 77.0403H692.083C692.658 77.0403 693.931 78.8472 695.902 82.461C697.873 86.0749 698.859 88.1282 698.859 88.621C698.859 89.0317 698.818 89.2781 698.736 89.3603L674.835 119.421L696.271 117.943C697.586 117.943 698.243 120.858 698.243 126.69C698.243 128.907 698.037 131.454 697.627 134.328C697.216 137.203 696.518 138.64 695.532 138.64H656.108C654.876 138.64 653.398 136.587 651.673 132.48C649.948 128.374 649.086 125.91 649.086 125.088C649.086 124.185 649.168 123.651 649.332 123.487L672.863 96.013L651.304 96.7523Z" fill="#1D1D1D"/>
<path d="M609.442 137.901C609.442 138.476 606.486 138.763 600.572 138.763C592.359 138.517 588.252 138.065 588.252 137.408V97.4914H585.049C582.913 97.4914 581.517 95.6845 580.86 92.0706C580.696 91.0029 580.614 89.9352 580.614 88.8674C580.614 86.3213 581.106 83.7752 582.092 81.229C583.57 77.6152 585.87 75.8082 588.991 75.8082C592.112 75.8082 594.905 76.5474 597.369 78.0258C599.833 79.5042 601.475 80.9826 602.297 82.461C607.471 78.0258 613.631 75.8082 620.777 75.8082C627.922 75.8082 633.097 77.7384 636.3 81.5986C639.503 85.4589 641.105 91.7832 641.105 100.571V137.531C641.105 138.517 637.573 139.01 630.51 139.01C623.528 139.01 620.038 138.517 620.038 137.531V101.927C620.038 97.82 618.6 95.7666 615.726 95.7666C614.904 95.7666 613.754 96.1362 612.276 96.8755C610.798 97.5325 609.853 98.0253 609.442 98.3538V137.901Z" fill="#1D1D1D"/>
<path d="M527.81 93.9186C525.51 89.812 524.36 86.4856 524.36 83.9394C524.36 81.3112 525.058 79.6274 526.455 78.8882C531.136 76.8349 537.543 75.8082 545.674 75.8082C553.887 75.8082 559.678 77.7384 563.045 81.5986C566.413 85.3768 568.096 91.0029 568.096 98.4771V117.943H572.285C573.681 117.943 574.749 118.764 575.488 120.407C576.31 122.049 576.72 124.308 576.72 127.183C576.72 130.057 575.981 132.891 574.503 135.683C573.106 138.476 571.176 139.872 568.712 139.872C564.277 139.872 560.704 138.681 557.994 136.299C556.762 135.314 555.817 134.123 555.16 132.727C551.382 137.49 545.51 139.872 537.543 139.872C531.547 139.872 526.496 137.737 522.389 133.466C518.282 129.195 516.229 124.144 516.229 118.312C516.229 104.925 524.237 98.2307 540.253 98.2307H547.029V96.9986C547.029 94.8632 546.66 93.508 545.92 92.933C545.263 92.276 543.662 91.9474 541.115 91.9474C537.994 91.9474 533.559 92.6045 527.81 93.9186ZM537.666 116.587C537.666 118.394 538.159 119.791 539.144 120.776C540.13 121.68 541.362 122.131 542.84 122.131C544.401 122.131 545.797 121.515 547.029 120.283V110.797H543.58C539.637 110.797 537.666 112.727 537.666 116.587Z" fill="#1D1D1D"/>
<path d="M508.906 137.901C508.906 138.558 505.128 138.887 497.572 138.887C490.098 138.887 486.361 138.599 486.361 138.024V77.5331C486.361 76.9581 490.098 76.6706 497.572 76.6706C505.128 76.6706 508.906 76.9171 508.906 77.4099V137.901ZM508.906 70.141C508.906 70.716 505.128 71.0034 497.572 71.0034C490.098 71.0034 486.361 70.7571 486.361 70.2643V52.5234C486.361 51.7021 490.098 51.2914 497.572 51.2914C505.128 51.2914 508.906 51.5378 508.906 52.0306V70.141Z" fill="#1D1D1D"/>
<path d="M475.216 137.655C475.216 138.394 471.027 138.763 462.65 138.763C456.079 138.681 452.794 138.353 452.794 137.778V53.8786C452.794 52.6466 456.777 52.0307 464.744 52.0307C471.725 52.277 475.216 52.6877 475.216 53.2626V137.655Z" fill="#1D1D1D"/>
<path d="M430.584 138.887C423.438 138.887 419.578 137.737 419.003 135.437L414.937 119.544H395.349L391.776 134.821C391.283 137.367 387.341 138.64 379.949 138.64C376.006 138.64 373.091 138.435 371.202 138.024C369.313 137.531 368.368 137.162 368.368 136.915L390.174 53.509C390.174 52.852 395.8 52.5234 407.053 52.5234C418.305 52.5234 423.931 52.852 423.931 53.509L445.245 137.039C445.245 137.614 443.356 138.065 439.578 138.394C435.799 138.722 432.802 138.887 430.584 138.887ZM398.429 103.898H411.365L405.821 78.3954H405.081L398.429 103.898Z" fill="#1D1D1D"/>
<path d="M123.248 274.486C142.951 271.321 166.882 258.479 186.486 263.884C218.622 272.744 229.441 292.394 271.117 284.784C283.66 282.492 294.789 271.513 307.575 267.632C310.358 266.787 313.082 268.983 312.922 271.886C312.154 285.786 315.905 296.618 299.648 303.081C268.086 315.627 226.025 301.547 192.779 290.105C182.723 286.641 171.842 286.241 161.625 289.202C149.634 292.682 137.874 297.247 125.393 297.111C123.178 297.086 121.314 295.572 120.858 293.406C119.528 287.113 119.596 276.683 123.248 274.486Z" fill="#86CDE3"/>
<path d="M74.6965 223.795C78.238 223.795 81.1105 226.667 81.1105 230.209C81.1105 233.75 78.2379 236.622 74.6965 236.622C71.1552 236.622 68.2834 233.75 68.2834 230.209C68.2834 226.668 71.1551 223.795 74.6965 223.795Z" fill="#8CC059"/>
<path fill-rule="evenodd" clip-rule="evenodd" d="M69.9533 213.72C83.647 212.22 87.026 222.647 94.8644 226.686C99.4362 229.039 109.057 227.871 109.452 234.895C109.829 241.586 96.533 246.473 91.7267 251.732C81.4665 262.958 76.0215 280.071 78.5881 295.245C78.875 296.951 77.4159 298.444 75.6945 298.277L70.6379 297.787C64.7492 297.213 59.9858 292.743 59.048 286.9L58.1105 281.07L45.6662 288.396C47.8194 292.626 54.103 286.096 56.5988 291.306C61.3773 301.276 42.7325 300.774 36.1398 300.73C26.8574 300.669 16.2946 300.184 10.6154 291.62C-6.56079 265.729 27.4956 229.404 52.6437 225.631C55.4806 225.205 58.5832 227.097 58.8107 226.88C60.8586 224.905 58.1331 215.016 69.9533 213.72ZM82.3996 222.327C73.4348 215.26 56.8662 227.423 66.0744 237.202C69.2549 240.577 79.5086 241.354 82.6369 238.229C85.1603 235.709 85.5862 224.841 82.3996 222.327Z" fill="#8CC059"/>
<path d="M168.52 231.912C187.964 228.966 186.188 233.065 200.483 239.627C225.828 251.254 256.508 245.168 283.507 243.002C290.772 242.419 298.117 243.144 305.206 241.703C308.149 241.108 311.117 242.644 312.156 245.464C318.12 261.653 306.03 264.754 290.124 268.653C268.706 273.907 239.852 275.483 218.351 270.078C195.717 264.393 186.803 253.296 160.958 258.025C153.171 259.451 131.779 267.462 125.51 266.42C118.693 265.284 118.884 248.642 120.506 246.111C121.861 244.004 163.418 232.687 168.52 231.912Z" fill="#86CDE3"/>
<path d="M188.288 210.829C220.476 209.725 257.97 226.948 287.234 218.894C295.621 216.583 301.526 208.233 311.691 213.298C315.954 215.42 317.157 231.4 314.757 232.52C282.359 247.626 239.855 239.676 216.885 234.932C206.81 232.849 193.627 226.822 183.956 226.751C162.242 226.594 140.273 239.196 118.827 238.588C117.8 234.019 119.143 219.456 124.273 218.058C129.847 216.54 147.808 217.607 156.035 216.49C166.499 215.071 176.708 211.227 188.288 210.829Z" fill="#86CDE3"/>
<path fill-rule="evenodd" clip-rule="evenodd" d="M36.1115 169.797C36.7346 169.769 38.9224 162.681 44.632 164.081C51.1684 165.682 49.344 177.249 50.2658 178.327C50.9501 179.129 60.4944 180.376 58.6437 187.764C58.0881 192.332 47.5725 192.718 47.1437 193.215C46.2071 194.308 50.9127 203.793 44.1916 207.094C36.0816 211.076 31.5335 201.97 25.882 202.062C22.0261 202.125 18.0835 208.08 13.6076 201.081C6.35545 189.741 21.4704 184.774 22.131 182.044C22.7784 179.366 14.3638 172.163 23.1672 166.989C30.5858 162.628 32.5336 169.959 36.1115 169.797ZM40.2228 178.871C29.3331 173.22 25.0148 190.353 34.2541 192.984C42.941 195.461 46.081 181.91 40.2228 178.871Z" fill="#F69650"/>
<path d="M279.525 167.939C289.23 167.94 297.096 175.807 297.096 185.512C297.096 195.217 289.23 203.083 279.525 203.083C269.82 203.083 261.952 195.217 261.952 185.512C261.952 175.807 269.82 167.94 279.525 167.939Z" fill="#F69650"/>
<path d="M269.208 47.0762C303.546 40.9711 298.453 71.4097 281.332 88.3027C242.895 126.225 220.474 113.001 222.756 133.123C226.816 137.214 239.538 125.651 246.01 119.771C248.231 117.751 250.712 115.99 253.497 114.873C267.385 109.296 283.935 114.278 277.676 134.635C270.324 163.728 215.478 145.855 199.48 160.533C195.226 164.439 198.469 171.904 204.089 170.587C204.805 170.42 205.496 170.133 206.125 169.729C207.797 168.647 209.768 168.106 211.702 167.628C232.862 162.405 255.394 168.054 243.181 182.528C237.261 189.543 228.188 193.134 219.014 192.925C187.588 192.209 172.616 173.465 139.333 200.495C138.229 191.925 146.145 192.85 150.368 187.384C161.153 173.428 144.39 151.592 142.354 138.167C138.032 109.684 164.457 91.4899 173.455 126.188C174.976 132.37 172.142 147.198 178.542 146.607C181.281 146.354 183.209 143.813 183.355 141.064C183.916 130.31 179.632 102.416 179.653 94.8115C180.835 23.8218 277.605 37.7507 207.013 111.739C206.183 113.411 205.703 115.107 206.658 115.549C213.498 118.702 228.638 94.0256 238.979 75.6611C245.75 63.6395 253.528 51.6018 266.768 47.7207C267.604 47.4771 268.419 47.2612 269.208 47.0762Z" fill="#023923"/>
<path fill-rule="evenodd" clip-rule="evenodd" d="M100.892 137.76C113.485 135.505 114.759 150.671 116.634 150.677C117.177 150.677 120.247 146.059 126.589 148.048C137.855 151.58 126.784 163.492 126.33 166.357C125.961 168.68 135.039 173.533 128.292 181.405C122.144 188.583 111.374 179.104 108.653 181.52C107.704 182.363 109.254 190.275 100.436 191.639C85.5115 193.949 88.1448 180.02 82.9992 175.581C78.5378 171.735 64.5921 177.197 69.7219 160.885C73.3187 149.443 89.1937 153.986 92.591 151.54C95.1629 149.688 92.2832 139.303 100.892 137.76ZM104.458 155.478C92.5109 155.839 92.9267 174.36 105.445 173.697C117.91 173.037 116.288 155.12 104.458 155.478Z" fill="#F69650"/>
<path d="M41.3312 91.292C46.4766 88.8674 54.1949 86.7641 56.6447 89.1328C59.0201 91.4311 69.1975 124.082 67.3527 127.034C66.9778 127.628 58.7226 131.427 53.4367 132.309C51.2806 132.666 49.2047 131.374 48.5568 129.289L38.6691 97.3018C37.932 94.9112 39.0705 92.3595 41.3312 91.292Z" fill="#F69650"/>
<path d="M26.3234 93.5566C28.9209 93.5721 31.0158 95.6818 31.0158 98.2793V124.828C31.0158 127.182 29.4515 129.274 27.1965 129.946C6.94153 135.992 7.24289 129.141 7.52361 108.892C7.56063 106.31 7.63468 100.809 8.35955 97.0303C8.76053 94.9575 10.5564 93.4549 12.6691 93.4668L26.3234 93.5566Z" fill="#F69650"/>
<path d="M66.1467 81.2412C70.7276 78.4711 75.9289 74.9181 80.1027 77.3701C83.1815 79.1782 96.8743 98.691 97.7424 102.382C98.6863 106.392 96.1724 109.089 93.4269 112.097C92.9544 112.615 90.7604 114.475 88.5705 116.175C86.1366 118.062 82.6231 117.619 80.8 115.136C74.4297 106.47 66.8409 98.1619 63.5431 87.917C62.7258 85.3783 63.8642 82.6233 66.1467 81.2412Z" fill="#F69650"/>
<path d="M97.9894 54.291C104.634 53.1472 115.145 71.002 122.696 75.3799C123.958 76.111 124.708 77.5238 124.637 78.9766C124.476 82.3052 121.79 85.6007 120.657 89.0527C119.945 91.2303 117.619 92.4239 115.379 91.9336C104.28 89.5085 86.233 73.8927 86.9455 66.708C87.2359 63.7679 94.7871 54.841 97.9894 54.291Z" fill="#F69650"/>
<path d="M43.8918 0.287109C60.109 -0.376141 74.7571 0.0805092 90.7121 2.36328C95.6292 3.06645 98.1775 -0.715321 100.574 8.60352C109.444 43.096 75.5368 76.2627 44.5148 84.3945C33.9887 87.1525 11.8546 92.2046 5.52459 81.7471C0.265164 73.0562 -0.555642 39.8918 0.283378 28.5205C0.601115 24.2357 2.03287 9.62262 3.53826 6.77148C7.07346 0.0774255 35.506 0.632551 43.8918 0.287109Z" fill="#F69650"/>
<path d="M105.797 29.2979C106.781 27.0121 109.49 25.784 111.727 26.8818C114.484 28.2361 116.585 31.0525 119.263 32.376C128.595 36.9848 137.967 37.2997 148.002 38.2529C150.624 38.4999 152.512 40.9618 151.997 43.5469C150.794 49.5894 145.893 58.821 145.244 59.2891C141.268 62.1415 132.149 50.9608 128.456 49.541C115.731 44.6457 95.9229 52.1932 105.797 29.2979Z" fill="#F7964F"/>
<path d="M237.514 0C247.216 1.17835e-05 255.085 7.86633 255.085 17.5713C255.085 27.2764 247.216 35.1465 237.514 35.1465C227.809 35.1462 219.939 27.2763 219.939 17.5713C219.939 7.86651 227.809 0.000301044 237.514 0Z" fill="#86CDE3"/>
<path d="M112.973 4.96973C126.957 -8.67132 142.481 10.3621 159.315 7.96875C161.243 7.69439 163.084 9.0729 163.087 11.0225C163.109 25.1574 148.07 26.4103 136.051 21.4375C129.928 18.9047 130.482 13.0433 119.673 14.5518C115.16 15.1816 108.475 21.8406 108.623 12.1328C108.685 8.12581 110.44 7.4374 112.973 4.96973Z" fill="#F7964F"/>
</svg>
